<?xml version="1.0" standalone="no"?>
<!DOCTYPE svg PUBLIC "-//W3C//DTD SVG 20010904//EN"
 "http://www.w3.org/TR/2001/REC-SVG-20010904/DTD/svg10.dtd">
<svg version="1.0" xmlns="http://www.w3.org/2000/svg"
 width="300.000000pt" height="121.000000pt" viewBox="0 0 300.000000 121.000000"
 preserveAspectRatio="xMidYMid meet">
<metadata>
Created by potrace 1.10, written by Peter Selinger 2001-2011
</metadata>
<g transform="translate(0.000000,121.000000) scale(0.100000,-0.100000)"
fill="#000000" stroke="none">
<path d="M9 1199 c-11 -7 -9 -13 12 -31 32 -28 226 -279 246 -319 10 -19 21
-28 36 -27 24 1 239 -41 247 -49 3 -3 -31 -4 -75 -2 -66 3 -80 1 -80 -11 0 -9
8 -14 19 -13 10 1 77 -23 148 -53 72 -30 132 -53 135 -51 2 3 -53 29 -124 58
l-127 54 87 3 c73 2 121 -5 298 -43 116 -25 216 -44 222 -42 6 2 -56 18 -139
35 -82 18 -167 36 -189 41 -28 6 44 9 230 10 149 1 276 5 284 10 8 5 -117 7
-295 4 l-309 -6 -155 33 c-85 19 -165 41 -178 49 -18 13 -262 315 -262 325 0
2 84 -23 188 -55 301 -92 914 -277 947 -285 17 -4 28 -4 25 -1 -4 4 -595 185
-1013 309 -37 11 -66 22 -64 24 2 2 30 -1 63 -6 32 -5 236 -34 453 -64 217
-30 397 -59 400 -64 3 -5 13 -11 22 -13 22 -5 162 -176 154 -189 -3 -5 0 -10
8 -10 13 0 152 -166 163 -195 4 -8 1 -15 -5 -15 -29 0 -157 34 -162 43 -4 5
-17 7 -28 4 -12 -3 -37 -1 -57 5 -19 5 -49 6 -65 3 -29 -7 -29 -7 -29 -81 0
-41 -2 -74 -4 -74 -2 0 -58 23 -126 51 -67 28 -124 48 -127 46 -2 -3 55 -29
127 -58 l130 -53 0 -38 c0 -31 4 -38 20 -38 17 0 20 7 20 53 l0 52 55 -3 54
-4 -6 -31 c-3 -18 -7 -33 -8 -35 -1 -1 -19 5 -40 13 -20 9 -39 14 -42 12 -2
-3 16 -13 41 -22 25 -10 46 -22 46 -26 0 -5 9 -9 19 -9 23 0 140 -48 159 -65
11 -10 5 -28 -32 -102 -24 -49 -56 -103 -70 -120 -22 -26 -24 -32 -11 -43 11
-9 16 -7 27 10 17 27 74 63 88 55 5 -3 10 0 10 9 0 8 30 35 66 61 l66 46 32
-24 c40 -30 56 -40 56 -33 0 3 -18 19 -40 35 l-40 29 25 16 c13 9 26 16 29 16
8 0 46 -92 41 -100 -6 -9 29 -40 76 -68 20 -12 39 -31 42 -42 3 -11 10 -20 16
-20 19 0 24 28 8 44 -8 8 -38 60 -66 114 -58 115 -58 116 33 152 33 13 55 25
50 27 -6 2 -36 -8 -68 -22 -31 -14 -62 -23 -67 -20 -5 4 -9 49 -9 101 0 63 -4
93 -10 89 -7 -4 -8 -39 -4 -98 4 -51 4 -90 2 -87 -3 3 -22 37 -41 76 l-36 71
28 33 c15 18 36 35 47 36 49 7 134 27 130 31 -2 3 -30 -1 -61 -7 -31 -6 -59
-9 -62 -6 -6 5 57 91 102 140 14 15 29 35 35 46 6 11 17 20 24 20 7 0 13 6 13
14 0 22 136 185 156 186 9 0 17 4 17 10 0 5 15 12 33 14 91 16 835 116 852
115 18 0 -134 -47 -809 -251 -131 -40 -234 -74 -229 -75 8 -3 1060 311 1126
336 15 6 27 9 27 6 0 -12 -244 -320 -256 -323 -8 -2 -14 -8 -14 -13 0 -5 -8
-9 -18 -9 -10 0 -81 -14 -158 -31 l-139 -31 -307 4 c-169 3 -305 1 -302 -4 3
-4 128 -8 277 -9 l272 -1 -135 -29 c-251 -54 -281 -61 -277 -66 3 -2 112 19
243 47 200 43 251 50 323 48 l85 -3 -124 -52 c-89 -37 -133 -50 -152 -46 -23
4 -28 2 -28 -14 0 -13 -12 -23 -36 -32 -19 -7 -33 -15 -31 -18 3 -2 15 1 27 7
12 6 24 9 27 7 9 -10 -29 -158 -40 -154 -12 4 -40 115 -31 128 3 5 0 9 -5 9
-6 0 -11 9 -11 19 0 33 -11 51 -31 51 -16 0 -18 -5 -12 -28 4 -15 7 -37 8 -49
0 -13 3 -23 6 -23 4 0 9 -14 13 -32 20 -101 24 -108 65 -108 l37 0 18 76 c29
121 36 144 47 144 6 0 65 23 131 52 66 28 132 51 146 52 17 1 27 7 27 16 0 12
-15 15 -80 13 l-80 -2 80 20 c44 11 107 21 140 22 44 2 60 7 60 18 0 18 242
336 262 343 12 5 13 9 4 20 -10 12 -16 12 -39 1 -37 -18 -984 -146 -996 -134
-17 16 -35 10 -41 -14 -4 -14 -64 -68 -160 -142 l-153 -120 -48 -97 c-27 -54
-51 -98 -54 -98 -3 0 -28 45 -55 100 -28 55 -54 100 -58 100 -14 0 -306 243
-302 250 3 4 -2 13 -10 20 -11 10 -18 10 -29 1 -8 -7 -25 -9 -38 -6 -38 9
-890 125 -918 125 -14 0 -35 6 -46 14 -13 10 -25 11 -35 5z m1699 -396 c-8
-10 -36 -44 -63 -76 -26 -32 -50 -56 -52 -54 -10 11 31 78 68 110 43 38 73 50
47 20z m-340 -59 c29 -35 49 -80 31 -69 -5 3 -30 33 -55 67 -51 65 -29 67 24
2z m-205 -100 c11 -4 18 -16 19 -35 0 -16 1 -34 2 -40 1 -7 -20 -12 -52 -13
l-52 -1 0 53 0 54 33 -7 c17 -4 40 -9 50 -11z m166 -36 l63 -12 -4 -96 c-3
-52 -2 -84 2 -70 5 14 8 60 9 103 1 63 3 76 14 65 6 -8 22 -26 35 -40 l23 -26
-35 -70 c-48 -94 -57 -98 -142 -62 l-69 29 -3 102 c-3 101 -3 101 20 96 13 -3
52 -11 87 -19z m205 -303 l-29 -23 -35 20 -35 20 28 -24 27 -24 -46 -33 c-25
-17 -48 -31 -50 -29 -3 3 60 170 97 258 10 23 13 19 41 -59 l31 -83 -29 -23z"/>
<path d="M1409 895 c-7 -47 -10 -87 -7 -90 3 -3 10 33 17 80 7 47 14 85 16 85
2 0 32 -13 67 -29 l64 -28 13 -58 c7 -31 15 -54 17 -52 3 3 -1 30 -9 60 -15
55 -14 56 11 77 15 14 23 17 19 8 -3 -8 -1 -21 4 -29 6 -10 9 -2 9 24 l0 37
-104 0 -104 0 -13 -85z"/>
<path d="M20 645 c0 -10 11 -15 35 -15 l35 0 0 -105 c0 -98 1 -105 20 -105 19
0 20 7 20 105 l0 105 35 0 c24 0 35 5 35 15 0 12 -17 15 -90 15 -73 0 -90 -3
-90 -15z"/>
<path d="M370 540 l0 -120 75 0 c60 0 75 3 75 15 0 12 -13 15 -55 15 l-55 0 0
41 0 42 45 -5 c39 -5 45 -3 45 13 0 16 -8 19 -45 19 -45 0 -45 0 -45 35 l0 35
55 0 c42 0 55 3 55 15 0 12 -15 15 -75 15 l-75 0 0 -120z"/>
<path d="M726 647 c-15 -11 -21 -30 -24 -81 -8 -120 10 -146 99 -146 46 0 59
3 59 15 0 11 -12 15 -48 15 -26 0 -53 5 -60 12 -7 7 -12 40 -12 78 0 38 5 71
12 78 7 7 34 12 61 12 34 0 47 4 45 13 -7 18 -108 21 -132 4z"/>
<path d="M1778 647 c-38 -30 -46 -151 -12 -204 12 -19 23 -23 69 -23 57 0 95
22 95 55 0 8 5 15 11 15 16 0 161 62 156 67 -3 2 -37 -9 -77 -26 -40 -17 -75
-31 -79 -31 -3 0 -6 25 -7 55 -1 75 -28 105 -93 105 -25 0 -53 -6 -63 -13z
m106 -39 c19 -27 21 -107 4 -131 -7 -9 -27 -20 -45 -23 -26 -5 -34 -2 -48 20
-20 30 -17 115 5 141 19 23 66 19 84 -7z"/>
<path d="M2470 540 l0 -120 78 0 c63 0 79 3 79 15 0 12 -13 15 -59 15 l-58 0
0 41 0 42 45 -5 c39 -5 45 -3 45 13 0 16 -8 19 -45 19 -45 0 -45 0 -45 35 l0
35 58 0 c46 0 59 3 59 15 0 12 -16 15 -79 15 l-78 0 0 -120z"/>
<path d="M2810 540 c0 -115 1 -120 21 -120 18 0 20 5 18 48 -3 41 -1 47 17 50
16 2 25 -8 44 -48 19 -40 28 -50 47 -50 l24 0 -33 60 -33 61 31 59 c31 60 31
60 9 60 -18 0 -28 -12 -46 -55 -19 -43 -28 -55 -44 -53 -17 3 -19 10 -16 56 2
47 0 52 -18 52 -20 0 -21 -5 -21 -120z"/>
<path d="M1640 128 c0 -17 -18 -34 -65 -66 -36 -23 -69 -42 -74 -42 -19 0
-140 91 -144 108 -3 12 -5 11 -6 -6 -1 -17 15 -33 75 -72 l76 -49 74 50 c59
39 74 55 74 74 0 14 -2 25 -5 25 -3 0 -5 -10 -5 -22z"/>
</g>
</svg>
