<?xml version="1.0" standalone="no"?>
<!DOCTYPE svg PUBLIC "-//W3C//DTD SVG 20010904//EN"
 "http://www.w3.org/TR/2001/REC-SVG-20010904/DTD/svg10.dtd">
<svg version="1.0" xmlns="http://www.w3.org/2000/svg"
 width="300.000000pt" height="121.000000pt" viewBox="0 0 300.000000 121.000000"
 preserveAspectRatio="xMidYMid meet">
<metadata>
Created by potrace 1.10, written by Peter Selinger 2001-2011
</metadata>
<g transform="translate(0.000000,121.000000) scale(0.100000,-0.100000)"
fill="#ffffff" stroke="none">
<path d="M9 1199 c-11 -7 -8 -14 12 -31 35 -30 238 -293 249 -323 7 -17 17
-23 42 -24 18 0 80 -12 138 -25 l105 -25 -80 2 c-65 2 -80 -1 -80 -13 0 -8 9
-15 21 -15 11 0 81 -25 156 -55 l135 -55 -5 -67 c-8 -120 10 -148 97 -148 45
0 58 3 58 15 0 11 -12 15 -47 15 -25 0 -51 5 -58 12 -16 16 -16 140 0 156 7 7
34 12 61 12 34 0 47 4 45 13 -6 15 -100 22 -125 8 -14 -7 -51 5 -153 47 l-135
57 87 3 c74 2 122 -5 299 -43 116 -25 216 -44 222 -42 6 2 -56 18 -139 35 -82
18 -167 36 -189 41 -27 6 49 9 243 10 155 1 282 5 282 9 0 5 -139 7 -310 4
l-310 -5 -152 34 c-84 18 -163 40 -176 48 -20 14 -262 314 -262 326 0 2 19 -3
43 -11 23 -8 294 -90 601 -183 l557 -168 75 -93 c73 -92 84 -110 63 -110 -27
0 -155 34 -160 43 -4 5 -17 7 -28 4 -12 -3 -37 -1 -57 5 -19 5 -49 6 -65 3
-29 -7 -29 -7 -29 -81 0 -41 -2 -74 -5 -74 -3 0 -64 25 -137 55 -72 31 -133
54 -135 51 -4 -3 186 -86 250 -108 23 -9 27 -15 27 -49 0 -32 3 -39 20 -39 17
0 20 7 20 53 l0 52 51 -1 52 -2 1 -36 c1 -41 1 -41 -49 -20 -20 8 -39 13 -42
11 -2 -3 16 -13 41 -22 25 -10 46 -22 46 -26 0 -5 8 -9 18 -9 24 0 143 -48
161 -65 11 -11 4 -30 -39 -115 -29 -56 -61 -110 -72 -119 -16 -16 -17 -20 -4
-30 11 -10 17 -8 30 10 15 22 64 59 78 59 4 0 5 -13 2 -29 -6 -27 -1 -32 72
-79 l78 -50 73 49 c62 42 73 54 72 77 -2 27 -2 27 -6 2 -3 -18 -23 -38 -68
-68 -36 -23 -70 -42 -75 -42 -8 0 -106 61 -138 86 -2 1 0 18 3 38 6 30 18 44
72 81 l65 46 65 -48 c35 -27 83 -60 106 -76 23 -15 45 -36 49 -47 4 -11 12
-20 18 -20 18 0 23 29 7 44 -8 8 -38 60 -66 114 -58 115 -58 116 31 152 32 13
56 25 54 27 -2 2 -32 -7 -66 -21 -34 -14 -66 -23 -71 -20 -5 3 -9 47 -9 99 0
52 -4 97 -10 100 -7 4 -8 -29 -5 -97 l6 -103 -39 75 c-44 83 -45 71 11 142 15
18 33 25 23 9 -4 -5 20 -3 51 5 32 7 64 13 72 14 8 0 12 3 8 6 -3 3 -31 0 -62
-6 -31 -6 -59 -9 -62 -6 -6 5 57 91 102 140 14 15 29 35 35 46 6 11 16 20 22
20 12 0 1119 333 1163 350 14 5 25 7 25 4 0 -13 -244 -319 -257 -322 -18 -5
-12 -37 7 -37 8 0 15 7 15 16 0 19 242 336 262 343 12 5 13 9 4 20 -10 12 -16
12 -39 1 -40 -20 -984 -146 -999 -133 -15 12 -32 3 -41 -22 -7 -17 -301 -255
-306 -248 -2 2 -10 31 -18 65 l-15 62 25 22 c15 13 23 16 19 7 -3 -8 -1 -21 4
-29 6 -10 9 -2 9 24 l0 37 -104 0 -103 0 -12 -69 c-6 -39 -11 -81 -11 -95 0
-14 -4 -26 -10 -26 -15 0 -310 242 -305 250 3 4 -2 13 -10 20 -11 9 -19 10
-28 1 -10 -7 -31 -8 -73 -1 -102 17 -856 120 -878 120 -12 0 -33 6 -47 14 -16
8 -32 10 -40 5z m595 -99 c236 -32 432 -63 435 -68 3 -6 13 -11 22 -13 16 -4
165 -177 158 -184 -4 -3 -1081 319 -1104 330 -5 3 6 3 25 0 19 -3 228 -32 464
-65z m2246 54 c-120 -39 -1065 -322 -1068 -320 -6 7 141 181 156 185 10 2 20
7 23 12 3 5 151 29 330 54 178 25 380 54 449 64 152 23 168 23 110 5z m-1348
-213 l63 -28 17 -68 16 -69 -46 -93 c-26 -51 -49 -93 -52 -93 -3 0 -26 42 -52
93 l-46 92 15 98 c9 53 17 97 18 97 2 0 32 -13 67 -29z m74 12 c-11 -11 -35
-12 -42 -2 -3 5 7 9 22 9 15 0 24 -3 20 -7z m-277 -128 c86 -73 103 -96 161
-212 11 -24 25 -43 30 -43 18 0 49 38 70 87 34 76 66 116 135 171 64 52 85 62
85 41 0 -5 -4 -8 -9 -4 -5 3 -12 -3 -15 -13 -4 -10 -14 -27 -24 -38 -9 -10
-36 -44 -59 -74 -52 -69 -84 -109 -103 -129 -37 -39 -62 -83 -55 -99 3 -9 3
-13 -1 -9 -4 4 -14 1 -22 -6 -13 -10 -14 -8 -8 10 8 24 -11 60 -57 107 -15 15
-36 45 -47 65 -10 20 -19 32 -20 26 0 -5 -11 7 -25 27 -14 20 -37 50 -51 65
-14 15 -35 41 -47 57 l-20 29 29 -19 c16 -10 40 -28 53 -39z m-136 -181 c12
-4 17 -16 17 -40 0 -47 1 -46 -53 -48 l-47 -1 0 53 0 54 33 -7 c17 -4 40 -9
50 -11z m166 -36 l63 -13 -5 -100 c-3 -59 -2 -92 3 -80 5 11 9 59 9 108 l1 87
35 -39 36 -40 -35 -70 c-48 -93 -57 -97 -142 -61 l-69 29 -3 102 c-3 101 -3
101 20 96 13 -3 52 -11 87 -19z m223 -252 c10 -25 8 -31 -18 -53 l-29 -25 27
16 c15 9 29 16 32 16 6 0 47 -92 43 -96 -2 -2 -152 98 -165 110 -4 5 31 111
51 150 8 16 12 11 29 -35 11 -30 24 -67 30 -83z m18 54 c0 -5 -2 -10 -4 -10
-3 0 -8 5 -11 10 -3 6 -1 10 4 10 6 0 11 -4 11 -10z m20 -46 c0 -8 5 -12 10
-9 6 3 10 -2 10 -11 0 -10 18 -51 41 -92 22 -40 39 -75 37 -77 -2 -1 -13 1
-26 6 -23 9 -38 37 -47 91 -3 16 -12 37 -20 45 -8 8 -15 20 -15 28 0 7 -3 21
-7 31 -4 12 -3 15 5 10 7 -4 12 -14 12 -22z m-185 -54 c-9 -27 -23 -50 -30
-50 -7 0 -16 -7 -19 -16 -6 -15 -4 -15 10 -3 15 12 16 11 10 -11 -8 -26 -41
-60 -58 -60 -5 0 -6 6 -1 13 4 6 8 17 9 22 3 18 41 75 46 70 3 -3 8 13 12 37
4 23 12 48 19 56 19 23 20 -4 2 -58z m76 -32 c4 -7 -80 -72 -86 -66 -2 2 6 27
17 56 19 52 20 52 42 35 12 -10 24 -21 27 -25z"/>
<path d="M2555 809 c-104 -24 -120 -29 -65 -23 59 7 202 42 170 42 -14 0 -61
-9 -105 -19z"/>
<path d="M1750 768 c0 -5 127 -8 283 -9 l282 -1 -225 -49 c-124 -27 -241 -49
-260 -49 -19 0 -42 -6 -52 -13 -38 -30 -46 -151 -12 -204 12 -19 23 -23 69
-23 56 0 95 22 95 53 0 6 38 27 83 45 120 49 114 49 122 10 21 -106 23 -108
64 -108 l37 0 24 100 c13 55 26 103 29 108 10 14 262 115 290 116 14 1 26 7
26 14 0 10 -90 13 -428 15 -235 1 -427 -1 -427 -5z m799 -13 c-3 -2 -58 -27
-123 -54 -87 -37 -126 -49 -147 -44 -24 4 -29 2 -29 -13 0 -13 -14 -25 -43
-36 -53 -22 -57 -22 -57 1 0 33 -11 51 -32 51 -15 0 -18 -4 -13 -17 25 -65 23
-68 -70 -107 -48 -20 -90 -36 -93 -36 -4 0 -7 25 -8 55 0 42 -6 61 -22 78
l-21 22 232 51 c185 41 252 52 331 53 55 0 97 -1 95 -4z m-665 -147 c22 -31
21 -110 -1 -134 -28 -30 -69 -30 -89 1 -19 29 -16 114 6 140 19 23 66 19 84
-7z m356 -7 c0 -27 -33 -151 -41 -151 -4 0 -13 17 -18 38 -24 91 -25 87 11
104 39 19 48 21 48 9z"/>
<path d="M20 645 c0 -10 11 -15 35 -15 l35 0 0 -105 c0 -98 1 -105 20 -105 19
0 20 7 20 105 l0 105 35 0 c24 0 35 5 35 15 0 12 -17 15 -90 15 -73 0 -90 -3
-90 -15z"/>
<path d="M370 540 l0 -120 75 0 c60 0 75 3 75 15 0 12 -13 15 -55 15 l-55 0 0
41 0 41 45 -4 c38 -3 45 0 45 14 0 15 -9 18 -45 18 -45 0 -45 0 -45 35 l0 35
55 0 c42 0 55 3 55 15 0 12 -15 15 -75 15 l-75 0 0 -120z"/>
<path d="M2470 540 l0 -120 80 0 c66 0 78 2 74 15 -5 11 -21 15 -60 15 l-54 0
0 41 0 41 45 -4 c38 -3 45 0 45 14 0 15 -9 18 -45 18 -45 0 -45 0 -45 35 l0
35 54 0 c39 0 55 4 60 15 4 13 -8 15 -74 15 l-80 0 0 -120z"/>
<path d="M2810 540 c0 -113 1 -120 20 -120 17 0 20 7 20 50 0 42 3 50 18 50
12 0 26 -17 42 -50 19 -40 28 -50 47 -50 l24 0 -33 60 -33 61 31 59 c31 59 31
60 10 60 -16 0 -28 -14 -49 -55 -17 -36 -33 -55 -44 -55 -15 0 -18 8 -15 55 4
50 2 55 -17 55 -20 0 -21 -5 -21 -120z"/>
</g>
</svg>
